<mxfile host="app.diagrams.net" modified="2022-06-27T06:07:38.769Z" agent="5.0 (Windows NT 10.0; Win64; x64) AppleWebKit/537.36 (KHTML, like Gecko) Chrome/103.0.0.0 Safari/537.36" etag="Mlx9YAenw7WhxLbRdxkP" version="20.0.3" type="github">
  <diagram id="PrmzXuhJiqOq97uHlb59" name="第 1 页">
    <mxGraphModel dx="1775" dy="508" grid="1" gridSize="10" guides="1" tooltips="1" connect="1" arrows="1" fold="1" page="1" pageScale="1" pageWidth="827" pageHeight="1169" math="0" shadow="0">
      <root>
        <mxCell id="0" />
        <mxCell id="1" parent="0" />
        <mxCell id="gC9sp76RBLwbBsCsWngq-1" value="" style="rounded=0;whiteSpace=wrap;html=1;" vertex="1" parent="1">
          <mxGeometry x="-390" y="130" width="120" height="60" as="geometry" />
        </mxCell>
        <mxCell id="gC9sp76RBLwbBsCsWngq-3" value="" style="edgeStyle=orthogonalEdgeStyle;rounded=0;orthogonalLoop=1;jettySize=auto;html=1;" edge="1" parent="1" source="gC9sp76RBLwbBsCsWngq-2" target="gC9sp76RBLwbBsCsWngq-1">
          <mxGeometry relative="1" as="geometry" />
        </mxCell>
        <mxCell id="gC9sp76RBLwbBsCsWngq-2" value="我是" style="rounded=0;whiteSpace=wrap;html=1;" vertex="1" parent="1">
          <mxGeometry x="-600" y="130" width="120" height="60" as="geometry" />
        </mxCell>
      </root>
    </mxGraphModel>
  </diagram>
</mxfile>
